<svg xmlns:xlink="http://www.w3.org/1999/xlink" width="158" height="41" viewBox="0 0 158 41" xmlns="http://www.w3.org/2000/svg"><defs><path d="M10.132 19.934c0 1.418-1.187 2.567-2.653 2.567-1.465 0-2.653-1.149-2.653-2.567 0-1.417 1.188-2.567 2.653-2.567a2.704 2.704 0 0 1 1.882.76 2.53 2.53 0 0 1 .771 1.827v-.02zm-1.01 0c0-.877-.736-1.589-1.643-1.589s-1.642.712-1.642 1.59c0 .877.735 1.588 1.642 1.588.9 0 1.632-.7 1.643-1.57v-.019zM18.152.49v33.98c0 .27-.226.488-.505.488a.497.497 0 0 1-.505-.488V30.27h-5.094v2.67c0 1.08-.905 1.955-2.022 1.955H4.973c-1.117 0-2.022-.876-2.022-1.956v-2.689H.505A.497.497 0 0 1 0 29.762V24.57c0-.27.226-.488.505-.488h1.602v-5.868c0-2.412 1.907-4.424 4.392-4.63l.54-2.376H5.838a.497.497 0 0 1-.505-.49c0-.27.226-.488.505-.488h1.43l.677-2.934c.458-2.15 2.416-3.693 4.685-3.691h4.513V.489c0-.27.226-.489.505-.489.28 0 .506.219.506.489zM11.038 30.27H3.962v2.67c0 .54.453.977 1.01.977h5.054c.559 0 1.011-.438 1.011-.978v-2.689.02zm6.105-5.213H1.01v4.24h16.13v-4.24zM13.574 7.862c-.951 0-1.774.641-1.976 1.54l-.94 4.156h6.484V7.862h-3.568zm-.945-3.256c-1.78-.005-3.32 1.193-3.7 2.875l-1.515 6.674a.502.502 0 0 1-.506.381c-2.093 0-3.79 1.642-3.79 3.667v5.868h14.024v-9.54h-7.116a.513.513 0 0 1-.4-.177.477.477 0 0 1-.105-.414l1.076-4.753c.313-1.343 1.543-2.3 2.967-2.308h3.568V4.581l-4.503.025z" id="path-1"/><filter x="-26.7%" y="-13.9%" width="153.4%" height="127.7%" filterUnits="objectBoundingBox" id="filter-2"><feMorphology radius=".35" operator="dilate" in="SourceAlpha" result="shadowSpreadOuter1"/><feOffset in="shadowSpreadOuter1" result="shadowOffsetOuter1"/><feGaussianBlur stdDeviation="1.5" in="shadowOffsetOuter1" result="shadowBlurOuter1"/><feComposite in="shadowBlurOuter1" in2="SourceAlpha" operator="out" result="shadowBlurOuter1"/><feColorMatrix values="0 0 0 0 0 0 0 0 0 0 0 0 0 0 0 0 0 0 0.0782099185 0" in="shadowBlurOuter1"/></filter></defs><g id="Fleetx-logo" fill="none" fill-rule="evenodd" transform="translate(-43 -108)"><g id="Group-2" transform="translate(46 111)"><g id="Group-9"><g id="logo"><g id="Logo-on-white-Copy"><g id="Group-4"><g id="Shape-Copy" fill-rule="nonzero"><use fill="#000" filter="url(#filter-2)" xlink:href="#path-1"/><use stroke="#203254" stroke-width=".7" fill="#203254" fill-rule="evenodd" xlink:href="#path-1"/></g><path d="M26.018 5.638c.668 0 1.21.542 1.21 1.21v26.355a1.21 1.21 0 0 1-2.42 0V6.848c0-.668.542-1.21 1.21-1.21z" id="Rectangle" stroke="#1FD8AA" stroke-width=".5" fill="#1FD8AA"/><path d="M34.288 13.532c.669 0 1.21.542 1.21 1.21v19.122a1.21 1.21 0 1 1-2.42 0V14.742c0-.668.542-1.21 1.21-1.21z" id="Rectangle-Copy" stroke="#0EC0D6" stroke-width=".5" fill="#0EC0D6"/><path d="M50.827 14.66c.668 0 1.21.541 1.21 1.21v17.916a1.21 1.21 0 0 1-2.42 0V15.87c0-.668.542-1.21 1.21-1.21z" id="Rectangle-Copy-3" stroke="#0DB8FF" stroke-width=".5" fill="#0DB8FF"/><path d="M42.558 19.17c.668 0 1.21.542 1.21 1.21v13.095a1.21 1.21 0 0 1-2.42 0V20.38c0-.668.541-1.21 1.21-1.21z" id="Rectangle-Copy-2" stroke="#24B1A4" stroke-width=".5" fill="#24B1A4"/></g></g></g><path d="M63.483 15.525v-2.319c0-3.673 2.696-6.241 6.528-6.206 1.241.036 2.59.321 3.512.82l-.107 3.567c-.78-.606-1.738-.927-2.625-.927-1.88-.036-3.264 1.355-3.264 3.353v1.712h4.967l-.036 3.031h-4.93v15.266h-4.045V18.556H61l.035-3.031h2.448zM79.59 7.357v26.465h-4.08V7.357h4.08zm13.23 7.347c6.634 0 9.33 4.352 8.833 11.2h-14.26c.638 2.924 2.873 4.743 5.853 4.743 2.057 0 3.937-.784 5.32-2.211l2.165 2.318c-1.845 2.033-4.541 3.21-7.805 3.21-5.818 0-9.649-3.887-9.649-9.594 0-5.742 3.938-9.63 9.543-9.666zm-5.499 8.204h10.785c-.142-3.068-2.164-4.922-5.25-4.922-2.98 0-5.074 1.89-5.535 4.922zm25.611-8.204c6.634 0 9.33 4.352 8.833 11.2h-14.26c.638 2.924 2.873 4.743 5.853 4.743 2.057 0 3.937-.784 5.321-2.211l2.164 2.318c-1.845 2.033-4.54 3.21-7.805 3.21-5.817 0-9.649-3.887-9.649-9.594 0-5.742 3.938-9.63 9.543-9.666zm-5.499 8.204h10.785c-.142-3.068-2.164-4.922-5.25-4.922-2.98 0-5.073 1.89-5.535 4.922zm27.491 6.562l1.03 3.139c-1.49.892-3.052 1.391-4.648 1.391-2.838 0-5.286-1.64-5.286-5.528v-9.844h-2.66V15.56h2.66v-5.207h4.044v5.207h5.57v3.068h-5.57v9.095c0 1.961.745 2.568 2.022 2.568.852 0 1.739-.286 2.838-.82zm10.889-8.132l4.292-6.491h4.47l-6.066 9.238L155 33.822h-4.683l-4.505-6.955-4.825 6.955h-4.54l6.669-9.737-6.208-9.238h4.682l4.222 6.491z" id="fleetx" fill="#203254"/></g></g></g></svg>